<svg width="100%" height="100%" viewBox="0 0 1440 1417" fill="currentColor" xmlns="http://www.w3.org/2000/svg">
<g opacity="100" clip-path="url(#clip0_1_245)">
<path d="M102.857 0H0V88.1429H102.857V0Z" stroke="white" stroke-width="100%"/>
<path d="M205.714 0H102.857V88.1429H205.714V0Z" stroke="white" stroke-width="100%"/>
<path d="M308.571 0H205.714V88.1429H308.571V0Z" stroke="white" stroke-width="100%"/>
<path d="M411.429 0H308.571V88.1429H411.429V0Z" stroke="white" stroke-width="100%"/>
<path d="M514.286 0H411.429V88.1429H514.286V0Z" stroke="white" stroke-width="100%"/>
<path d="M617.143 0H514.286V88.1429H617.143V0Z" stroke="white" stroke-width="100%"/>
<path d="M720 0H617.143V88.1429H720V0Z" stroke="white" stroke-width="100%"/>
<path d="M822.857 0H720V88.1429H822.857V0Z" stroke="white" stroke-width="100%"/>
<path d="M925.714 0H822.857V88.1429H925.714V0Z" stroke="white" stroke-width="100%"/>
<path d="M1028.57 0H925.714V88.1429H1028.57V0Z" stroke="white" stroke-width="100%"/>
<path d="M1131.43 0H1028.57V88.1429H1131.43V0Z" stroke="white" stroke-width="100%"/>
<path d="M1234.29 0H1131.43V88.1429H1234.29V0Z" stroke="white" stroke-width="100%"/>
<path d="M1337.14 0H1234.29V88.1429H1337.14V0Z" stroke="white" stroke-width="100%"/>
<path d="M1440 0H1337.14V88.1429H1440V0Z" stroke="white" stroke-width="100%"/>
<path d="M1542.86 0H1440V88.1429H1542.86V0Z" stroke="white" stroke-width="100%"/>
<path d="M102.857 88.1428H0V176.286H102.857V88.1428Z" stroke="white" stroke-width="100%"/>
<path d="M205.714 88.1428H102.857V176.286H205.714V88.1428Z" stroke="white" stroke-width="100%"/>
<path d="M308.571 88.1428H205.714V176.286H308.571V88.1428Z" stroke="white" stroke-width="100%"/>
<path d="M411.429 88.1428H308.571V176.286H411.429V88.1428Z" stroke="white" stroke-width="100%"/>
<path d="M514.286 88.1428H411.429V176.286H514.286V88.1428Z" stroke="white" stroke-width="100%"/>
<path d="M617.143 88.1428H514.286V176.286H617.143V88.1428Z" stroke="white" stroke-width="100%"/>
<path d="M720 88.1428H617.143V176.286H720V88.1428Z" stroke="white" stroke-width="100%"/>
<path d="M822.857 88.1428H720V176.286H822.857V88.1428Z" stroke="white" stroke-width="100%"/>
<path d="M925.714 88.1428H822.857V176.286H925.714V88.1428Z" stroke="white" stroke-width="100%"/>
<path d="M1028.57 88.1428H925.714V176.286H1028.57V88.1428Z" stroke="white" stroke-width="100%"/>
<path d="M1131.43 88.1428H1028.57V176.286H1131.43V88.1428Z" stroke="white" stroke-width="100%"/>
<path d="M1234.29 88.1428H1131.43V176.286H1234.29V88.1428Z" stroke="white" stroke-width="100%"/>
<path d="M1337.14 88.1428H1234.29V176.286H1337.14V88.1428Z" stroke="white" stroke-width="100%"/>
<path d="M1440 88.1428H1337.14V176.286H1440V88.1428Z" stroke="white" stroke-width="100%"/>
<path d="M1542.86 88.1428H1440V176.286H1542.86V88.1428Z" stroke="white" stroke-width="100%"/>
<path d="M102.857 176.286H0V264.429H102.857V176.286Z" stroke="white" stroke-width="100%"/>
<path d="M205.714 176.286H102.857V264.429H205.714V176.286Z" stroke="white" stroke-width="100%"/>
<path d="M308.571 176.286H205.714V264.429H308.571V176.286Z" stroke="white" stroke-width="100%"/>
<path d="M411.429 176.286H308.571V264.429H411.429V176.286Z" stroke="white" stroke-width="100%"/>
<path d="M514.286 176.286H411.429V264.429H514.286V176.286Z" stroke="white" stroke-width="100%"/>
<path d="M617.143 176.286H514.286V264.429H617.143V176.286Z" stroke="white" stroke-width="100%"/>
<path d="M720 176.286H617.143V264.429H720V176.286Z" stroke="white" stroke-width="100%"/>
<path d="M822.857 176.286H720V264.429H822.857V176.286Z" stroke="white" stroke-width="100%"/>
<path d="M925.714 176.286H822.857V264.429H925.714V176.286Z" stroke="white" stroke-width="100%"/>
<path d="M1028.57 176.286H925.714V264.429H1028.57V176.286Z" stroke="white" stroke-width="100%"/>
<path d="M1131.43 176.286H1028.57V264.429H1131.43V176.286Z" stroke="white" stroke-width="100%"/>
<path d="M1234.29 176.286H1131.43V264.429H1234.29V176.286Z" stroke="white" stroke-width="100%"/>
<path d="M1337.14 176.286H1234.29V264.429H1337.14V176.286Z" stroke="white" stroke-width="100%"/>
<path d="M1440 176.286H1337.14V264.429H1440V176.286Z" stroke="white" stroke-width="100%"/>
<path d="M1542.86 176.286H1440V264.429H1542.86V176.286Z" stroke="white" stroke-width="100%"/>
<path d="M102.857 264.429H0V352.572H102.857V264.429Z" stroke="white" stroke-width="100%"/>
<path d="M205.714 264.429H102.857V352.572H205.714V264.429Z" stroke="white" stroke-width="100%"/>
<path d="M308.571 264.429H205.714V352.572H308.571V264.429Z" stroke="white" stroke-width="100%"/>
<path d="M411.429 264.429H308.571V352.572H411.429V264.429Z" stroke="white" stroke-width="100%"/>
<path d="M514.286 264.429H411.429V352.572H514.286V264.429Z" stroke="white" stroke-width="100%"/>
<path d="M617.143 264.429H514.286V352.572H617.143V264.429Z" stroke="white" stroke-width="100%"/>
<path d="M720 264.429H617.143V352.572H720V264.429Z" stroke="white" stroke-width="100%"/>
<path d="M822.857 264.429H720V352.572H822.857V264.429Z" stroke="white" stroke-width="100%"/>
<path d="M925.714 264.429H822.857V352.572H925.714V264.429Z" stroke="white" stroke-width="100%"/>
<path d="M1028.57 264.429H925.714V352.572H1028.57V264.429Z" stroke="white" stroke-width="100%"/>
<path d="M1131.43 264.429H1028.57V352.572H1131.43V264.429Z" stroke="white" stroke-width="100%"/>
<path d="M1234.29 264.429H1131.43V352.572H1234.29V264.429Z" stroke="white" stroke-width="100%"/>
<path d="M1337.14 264.429H1234.29V352.572H1337.14V264.429Z" stroke="white" stroke-width="100%"/>
<path d="M1440 264.429H1337.14V352.572H1440V264.429Z" stroke="white" stroke-width="100%"/>
<path d="M1542.86 264.429H1440V352.572H1542.86V264.429Z" stroke="white" stroke-width="100%"/>
<path d="M102.857 352.571H0V440.714H102.857V352.571Z" stroke="white" stroke-width="100%"/>
<path d="M205.714 352.571H102.857V440.714H205.714V352.571Z" stroke="white" stroke-width="100%"/>
<path d="M308.571 352.571H205.714V440.714H308.571V352.571Z" stroke="white" stroke-width="100%"/>
<path d="M411.429 352.571H308.571V440.714H411.429V352.571Z" stroke="white" stroke-width="100%"/>
<path d="M514.286 352.571H411.429V440.714H514.286V352.571Z" stroke="white" stroke-width="100%"/>
<path d="M617.143 352.571H514.286V440.714H617.143V352.571Z" stroke="white" stroke-width="100%"/>
<path d="M720 352.571H617.143V440.714H720V352.571Z" stroke="white" stroke-width="100%"/>
<path d="M822.857 352.571H720V440.714H822.857V352.571Z" stroke="white" stroke-width="100%"/>
<path d="M925.714 352.571H822.857V440.714H925.714V352.571Z" stroke="white" stroke-width="100%"/>
<path d="M1028.57 352.571H925.714V440.714H1028.57V352.571Z" stroke="white" stroke-width="100%"/>
<path d="M1131.43 352.571H1028.57V440.714H1131.43V352.571Z" stroke="white" stroke-width="100%"/>
<path d="M1234.29 352.571H1131.43V440.714H1234.29V352.571Z" stroke="white" stroke-width="100%"/>
<path d="M1337.14 352.571H1234.29V440.714H1337.14V352.571Z" stroke="white" stroke-width="100%"/>
<path d="M1440 352.571H1337.14V440.714H1440V352.571Z" stroke="white" stroke-width="100%"/>
<path d="M1542.86 352.571H1440V440.714H1542.86V352.571Z" stroke="white" stroke-width="100%"/>
<path d="M102.857 440.714H0V528.857H102.857V440.714Z" stroke="white" stroke-width="100%"/>
<path d="M205.714 440.714H102.857V528.857H205.714V440.714Z" stroke="white" stroke-width="100%"/>
<path d="M308.571 440.714H205.714V528.857H308.571V440.714Z" stroke="white" stroke-width="100%"/>
<path d="M411.429 440.714H308.571V528.857H411.429V440.714Z" stroke="white" stroke-width="100%"/>
<path d="M514.286 440.714H411.429V528.857H514.286V440.714Z" stroke="white" stroke-width="100%"/>
<path d="M617.143 440.714H514.286V528.857H617.143V440.714Z" stroke="white" stroke-width="100%"/>
<path d="M720 440.714H617.143V528.857H720V440.714Z" stroke="white" stroke-width="100%"/>
<path d="M822.857 440.714H720V528.857H822.857V440.714Z" stroke="white" stroke-width="100%"/>
<path d="M925.714 440.714H822.857V528.857H925.714V440.714Z" stroke="white" stroke-width="100%"/>
<path d="M1028.57 440.714H925.714V528.857H1028.57V440.714Z" stroke="white" stroke-width="100%"/>
<path d="M1131.43 440.714H1028.57V528.857H1131.43V440.714Z" stroke="white" stroke-width="100%"/>
<path d="M1234.29 440.714H1131.43V528.857H1234.29V440.714Z" stroke="white" stroke-width="100%"/>
<path d="M1337.14 440.714H1234.29V528.857H1337.14V440.714Z" stroke="white" stroke-width="100%"/>
<path d="M1440 440.714H1337.14V528.857H1440V440.714Z" stroke="white" stroke-width="100%"/>
<path d="M1542.86 440.714H1440V528.857H1542.86V440.714Z" stroke="white" stroke-width="100%"/>
<path d="M102.857 528.857H0V617H102.857V528.857Z" stroke="white" stroke-width="100%"/>
<path d="M205.714 528.857H102.857V617H205.714V528.857Z" stroke="white" stroke-width="100%"/>
<path d="M308.571 528.857H205.714V617H308.571V528.857Z" stroke="white" stroke-width="100%"/>
<path d="M411.429 528.857H308.571V617H411.429V528.857Z" stroke="white" stroke-width="100%"/>
<path d="M514.286 528.857H411.429V617H514.286V528.857Z" stroke="white" stroke-width="100%"/>
<path d="M617.143 528.857H514.286V617H617.143V528.857Z" stroke="white" stroke-width="100%"/>
<path d="M720 528.857H617.143V617H720V528.857Z" stroke="white" stroke-width="100%"/>
<path d="M822.857 528.857H720V617H822.857V528.857Z" stroke="white" stroke-width="100%"/>
<path d="M925.714 528.857H822.857V617H925.714V528.857Z" stroke="white" stroke-width="100%"/>
<path d="M1028.57 528.857H925.714V617H1028.57V528.857Z" stroke="white" stroke-width="100%"/>
<path d="M1131.43 528.857H1028.57V617H1131.43V528.857Z" stroke="white" stroke-width="100%"/>
<path d="M1234.29 528.857H1131.43V617H1234.29V528.857Z" stroke="white" stroke-width="100%"/>
<path d="M1337.14 528.857H1234.29V617H1337.14V528.857Z" stroke="white" stroke-width="100%"/>
<path d="M1440 528.857H1337.14V617H1440V528.857Z" stroke="white" stroke-width="100%"/>
<path d="M1542.86 528.857H1440V617H1542.86V528.857Z" stroke="white" stroke-width="100%"/>
<path d="M102.857 617H0V705.143H102.857V617Z" stroke="white" stroke-width="100%"/>
<path d="M205.714 617H102.857V705.143H205.714V617Z" stroke="white" stroke-width="100%"/>
<path d="M308.571 617H205.714V705.143H308.571V617Z" stroke="white" stroke-width="100%"/>
<path d="M411.429 617H308.571V705.143H411.429V617Z" stroke="white" stroke-width="100%"/>
<path d="M514.286 617H411.429V705.143H514.286V617Z" stroke="white" stroke-width="100%"/>
<path d="M617.143 617H514.286V705.143H617.143V617Z" stroke="white" stroke-width="100%"/>
<path d="M720 617H617.143V705.143H720V617Z" stroke="white" stroke-width="100%"/>
<path d="M822.857 617H720V705.143H822.857V617Z" stroke="white" stroke-width="100%"/>
<path d="M925.714 617H822.857V705.143H925.714V617Z" stroke="white" stroke-width="100%"/>
<path d="M1028.57 617H925.714V705.143H1028.57V617Z" stroke="white" stroke-width="100%"/>
<path d="M1131.43 617H1028.57V705.143H1131.43V617Z" stroke="white" stroke-width="100%"/>
<path d="M1234.29 617H1131.43V705.143H1234.29V617Z" stroke="white" stroke-width="100%"/>
<path d="M1337.14 617H1234.29V705.143H1337.14V617Z" stroke="white" stroke-width="100%"/>
<path d="M1440 617H1337.14V705.143H1440V617Z" stroke="white" stroke-width="100%"/>
<path d="M1542.86 617H1440V705.143H1542.86V617Z" stroke="white" stroke-width="100%"/>
<path d="M102.857 705.143H0V793.286H102.857V705.143Z" stroke="white" stroke-width="100%"/>
<path d="M205.714 705.143H102.857V793.286H205.714V705.143Z" stroke="white" stroke-width="100%"/>
<path d="M308.571 705.143H205.714V793.286H308.571V705.143Z" stroke="white" stroke-width="100%"/>
<path d="M411.429 705.143H308.571V793.286H411.429V705.143Z" stroke="white" stroke-width="100%"/>
<path d="M514.286 705.143H411.429V793.286H514.286V705.143Z" stroke="white" stroke-width="100%"/>
<path d="M617.143 705.143H514.286V793.286H617.143V705.143Z" stroke="white" stroke-width="100%"/>
<path d="M720 705.143H617.143V793.286H720V705.143Z" stroke="white" stroke-width="100%"/>
<path d="M822.857 705.143H720V793.286H822.857V705.143Z" stroke="white" stroke-width="100%"/>
<path d="M925.714 705.143H822.857V793.286H925.714V705.143Z" stroke="white" stroke-width="100%"/>
<path d="M1028.57 705.143H925.714V793.286H1028.57V705.143Z" stroke="white" stroke-width="100%"/>
<path d="M1131.43 705.143H1028.57V793.286H1131.43V705.143Z" stroke="white" stroke-width="100%"/>
<path d="M1234.29 705.143H1131.43V793.286H1234.29V705.143Z" stroke="white" stroke-width="100%"/>
<path d="M1337.14 705.143H1234.29V793.286H1337.14V705.143Z" stroke="white" stroke-width="100%"/>
<path d="M1440 705.143H1337.14V793.286H1440V705.143Z" stroke="white" stroke-width="100%"/>
<path d="M1542.86 705.143H1440V793.286H1542.86V705.143Z" stroke="white" stroke-width="100%"/>
<path d="M102.857 793.286H0V881.429H102.857V793.286Z" stroke="white" stroke-width="100%"/>
<path d="M205.714 793.286H102.857V881.429H205.714V793.286Z" stroke="white" stroke-width="100%"/>
<path d="M308.571 793.286H205.714V881.429H308.571V793.286Z" stroke="white" stroke-width="100%"/>
<path d="M411.429 793.286H308.571V881.429H411.429V793.286Z" stroke="white" stroke-width="100%"/>
<path d="M514.286 793.286H411.429V881.429H514.286V793.286Z" stroke="white" stroke-width="100%"/>
<path d="M617.143 793.286H514.286V881.429H617.143V793.286Z" stroke="white" stroke-width="100%"/>
<path d="M720 793.286H617.143V881.429H720V793.286Z" stroke="white" stroke-width="100%"/>
<path d="M822.857 793.286H720V881.429H822.857V793.286Z" stroke="white" stroke-width="100%"/>
<path d="M925.714 793.286H822.857V881.429H925.714V793.286Z" stroke="white" stroke-width="100%"/>
<path d="M1028.57 793.286H925.714V881.429H1028.57V793.286Z" stroke="white" stroke-width="100%"/>
<path d="M1131.43 793.286H1028.57V881.429H1131.43V793.286Z" stroke="white" stroke-width="100%"/>
<path d="M1234.29 793.286H1131.43V881.429H1234.29V793.286Z" stroke="white" stroke-width="100%"/>
<path d="M1337.14 793.286H1234.29V881.429H1337.14V793.286Z" stroke="white" stroke-width="100%"/>
<path d="M1440 793.286H1337.14V881.429H1440V793.286Z" stroke="white" stroke-width="100%"/>
<path d="M1542.86 793.286H1440V881.429H1542.86V793.286Z" stroke="white" stroke-width="100%"/>
<path d="M102.857 881.428H0V969.571H102.857V881.428Z" stroke="white" stroke-width="100%"/>
<path d="M205.714 881.428H102.857V969.571H205.714V881.428Z" stroke="white" stroke-width="100%"/>
<path d="M308.571 881.428H205.714V969.571H308.571V881.428Z" stroke="white" stroke-width="100%"/>
<path d="M411.429 881.428H308.571V969.571H411.429V881.428Z" stroke="white" stroke-width="100%"/>
<path d="M514.286 881.428H411.429V969.571H514.286V881.428Z" stroke="white" stroke-width="100%"/>
<path d="M617.143 881.428H514.286V969.571H617.143V881.428Z" stroke="white" stroke-width="100%"/>
<path d="M720 881.428H617.143V969.571H720V881.428Z" stroke="white" stroke-width="100%"/>
<path d="M822.857 881.428H720V969.571H822.857V881.428Z" stroke="white" stroke-width="100%"/>
<path d="M925.714 881.428H822.857V969.571H925.714V881.428Z" stroke="white" stroke-width="100%"/>
<path d="M1028.57 881.428H925.714V969.571H1028.57V881.428Z" stroke="white" stroke-width="100%"/>
<path d="M1131.43 881.428H1028.57V969.571H1131.43V881.428Z" stroke="white" stroke-width="100%"/>
<path d="M1234.29 881.428H1131.43V969.571H1234.29V881.428Z" stroke="white" stroke-width="100%"/>
<path d="M1337.14 881.428H1234.29V969.571H1337.14V881.428Z" stroke="white" stroke-width="100%"/>
<path d="M1440 881.428H1337.14V969.571H1440V881.428Z" stroke="white" stroke-width="100%"/>
<path d="M1542.86 881.428H1440V969.571H1542.86V881.428Z" stroke="white" stroke-width="100%"/>
<path d="M102.857 969.572H0V1057.71H102.857V969.572Z" stroke="white" stroke-width="100%"/>
<path d="M205.714 969.572H102.857V1057.71H205.714V969.572Z" stroke="white" stroke-width="100%"/>
<path d="M308.571 969.572H205.714V1057.71H308.571V969.572Z" stroke="white" stroke-width="100%"/>
<path d="M411.429 969.572H308.571V1057.71H411.429V969.572Z" stroke="white" stroke-width="100%"/>
<path d="M514.286 969.572H411.429V1057.71H514.286V969.572Z" stroke="white" stroke-width="100%"/>
<path d="M617.143 969.572H514.286V1057.71H617.143V969.572Z" stroke="white" stroke-width="100%"/>
<path d="M720 969.572H617.143V1057.71H720V969.572Z" stroke="white" stroke-width="100%"/>
<path d="M822.857 969.572H720V1057.71H822.857V969.572Z" stroke="white" stroke-width="100%"/>
<path d="M925.714 969.572H822.857V1057.71H925.714V969.572Z" stroke="white" stroke-width="100%"/>
<path d="M1028.57 969.572H925.714V1057.71H1028.57V969.572Z" stroke="white" stroke-width="100%"/>
<path d="M1131.43 969.572H1028.57V1057.71H1131.43V969.572Z" stroke="white" stroke-width="100%"/>
<path d="M1234.29 969.572H1131.43V1057.71H1234.29V969.572Z" stroke="white" stroke-width="100%"/>
<path d="M1337.14 969.572H1234.29V1057.71H1337.14V969.572Z" stroke="white" stroke-width="100%"/>
<path d="M1440 969.572H1337.14V1057.71H1440V969.572Z" stroke="white" stroke-width="100%"/>
<path d="M1542.86 969.572H1440V1057.71H1542.86V969.572Z" stroke="white" stroke-width="100%"/>
<path d="M102.857 1057.71H0V1145.86H102.857V1057.71Z" stroke="white" stroke-width="100%"/>
<path d="M205.714 1057.71H102.857V1145.86H205.714V1057.71Z" stroke="white" stroke-width="100%"/>
<path d="M308.571 1057.71H205.714V1145.86H308.571V1057.71Z" stroke="white" stroke-width="100%"/>
<path d="M411.429 1057.71H308.571V1145.86H411.429V1057.71Z" stroke="white" stroke-width="100%"/>
<path d="M514.286 1057.71H411.429V1145.86H514.286V1057.71Z" stroke="white" stroke-width="100%"/>
<path d="M617.143 1057.71H514.286V1145.86H617.143V1057.71Z" stroke="white" stroke-width="100%"/>
<path d="M720 1057.71H617.143V1145.86H720V1057.71Z" stroke="white" stroke-width="100%"/>
<path d="M822.857 1057.71H720V1145.86H822.857V1057.71Z" stroke="white" stroke-width="100%"/>
<path d="M925.714 1057.71H822.857V1145.86H925.714V1057.71Z" stroke="white" stroke-width="100%"/>
<path d="M1028.57 1057.71H925.714V1145.86H1028.57V1057.71Z" stroke="white" stroke-width="100%"/>
<path d="M1131.43 1057.71H1028.57V1145.86H1131.43V1057.71Z" stroke="white" stroke-width="100%"/>
<path d="M1234.29 1057.71H1131.43V1145.86H1234.29V1057.71Z" stroke="white" stroke-width="100%"/>
<path d="M1337.14 1057.71H1234.29V1145.86H1337.14V1057.71Z" stroke="white" stroke-width="100%"/>
<path d="M1440 1057.71H1337.14V1145.86H1440V1057.71Z" stroke="white" stroke-width="100%"/>
<path d="M1542.86 1057.71H1440V1145.86H1542.86V1057.71Z" stroke="white" stroke-width="100%"/>
<path d="M102.857 1145.86H0V1234H102.857V1145.86Z" stroke="white" stroke-width="100%"/>
<path d="M205.714 1145.86H102.857V1234H205.714V1145.86Z" stroke="white" stroke-width="100%"/>
<path d="M308.571 1145.86H205.714V1234H308.571V1145.86Z" stroke="white" stroke-width="100%"/>
<path d="M411.429 1145.86H308.571V1234H411.429V1145.86Z" stroke="white" stroke-width="100%"/>
<path d="M514.286 1145.86H411.429V1234H514.286V1145.86Z" stroke="white" stroke-width="100%"/>
<path d="M617.143 1145.86H514.286V1234H617.143V1145.86Z" stroke="white" stroke-width="100%"/>
<path d="M720 1145.86H617.143V1234H720V1145.86Z" stroke="white" stroke-width="100%"/>
<path d="M822.857 1145.86H720V1234H822.857V1145.86Z" stroke="white" stroke-width="100%"/>
<path d="M925.714 1145.86H822.857V1234H925.714V1145.86Z" stroke="white" stroke-width="100%"/>
<path d="M1028.57 1145.86H925.714V1234H1028.57V1145.86Z" stroke="white" stroke-width="100%"/>
<path d="M1131.43 1145.86H1028.57V1234H1131.43V1145.86Z" stroke="white" stroke-width="100%"/>
<path d="M1234.29 1145.86H1131.43V1234H1234.29V1145.86Z" stroke="white" stroke-width="100%"/>
<path d="M1337.14 1145.86H1234.29V1234H1337.14V1145.86Z" stroke="white" stroke-width="100%"/>
<path d="M1440 1145.86H1337.14V1234H1440V1145.86Z" stroke="white" stroke-width="100%"/>
<path d="M1542.86 1145.86H1440V1234H1542.86V1145.86Z" stroke="white" stroke-width="100%"/>
<path d="M102.857 1234H0V1322.14H102.857V1234Z" stroke="white" stroke-width="100%"/>
<path d="M205.714 1234H102.857V1322.14H205.714V1234Z" stroke="white" stroke-width="100%"/>
<path d="M308.571 1234H205.714V1322.14H308.571V1234Z" stroke="white" stroke-width="100%"/>
<path d="M411.429 1234H308.571V1322.14H411.429V1234Z" stroke="white" stroke-width="100%"/>
<path d="M514.286 1234H411.429V1322.14H514.286V1234Z" stroke="white" stroke-width="100%"/>
<path d="M617.143 1234H514.286V1322.14H617.143V1234Z" stroke="white" stroke-width="100%"/>
<path d="M720 1234H617.143V1322.14H720V1234Z" stroke="white" stroke-width="100%"/>
<path d="M822.857 1234H720V1322.14H822.857V1234Z" stroke="white" stroke-width="100%"/>
<path d="M925.714 1234H822.857V1322.14H925.714V1234Z" stroke="white" stroke-width="100%"/>
<path d="M1028.57 1234H925.714V1322.14H1028.57V1234Z" stroke="white" stroke-width="100%"/>
<path d="M1131.43 1234H1028.57V1322.14H1131.43V1234Z" stroke="white" stroke-width="100%"/>
<path d="M1234.29 1234H1131.43V1322.14H1234.29V1234Z" stroke="white" stroke-width="100%"/>
<path d="M1337.14 1234H1234.29V1322.14H1337.14V1234Z" stroke="white" stroke-width="100%"/>
<path d="M1440 1234H1337.14V1322.14H1440V1234Z" stroke="white" stroke-width="100%"/>
<path d="M1542.86 1234H1440V1322.14H1542.86V1234Z" stroke="white" stroke-width="100%"/>
</g>
<defs>
<clipPath id="clip0_1_245">
<rect width="100%" height="100%" fill="currentColor"/>
</clipPath>
</defs>
</svg>
